<?xml version="1.0" encoding="UTF-8" standalone="no"?><!-- Generator: Gravit.io --><svg xmlns="http://www.w3.org/2000/svg" xmlns:xlink="http://www.w3.org/1999/xlink" style="isolation:isolate" viewBox="0 0 1920 1280" width="1920pt" height="1280pt"><defs><clipPath id="_clipPath_uz3hN9FB4sSCK7USwXLsnH7jWpRRsXLc"><rect width="1920" height="1280"/></clipPath></defs><g clip-path="url(#_clipPath_uz3hN9FB4sSCK7USwXLsnH7jWpRRsXLc)"><g><g><path d=" M 585.5 350 L 660 350.5 Q 623.658 356.158 605 379.5 Q 589.337 396.337 585.5 425 L 585.5 350 Z " fill="rgb(252,253,253)"/><path d=" M 660.5 350 L 929.5 350 L 1004.5 350 Q 1053.914 350.586 1075 379.5 Q 1097 401.5 1095 447.5 L 1095 514.5 L 1095 781.5 Q 1088.971 817.971 1065.5 837 Q 1043.5 859 997.5 857 L 930.5 857 L 660.5 857 Q 624.029 850.971 605 827.5 Q 583 805.5 585 759.5 L 585 692.5 L 585 425.5 Q 591.029 389.029 614.5 370 Q 631.841 354.341 660.5 350 Z " fill="rgb(0,0,0)"/><path d=" M 585.5 782 Q 591.158 818.342 614.5 837 Q 636.5 859 682.5 857 L 749.5 857 L 1019.5 857 Q 1055.971 850.971 1075 827.5 Q 1090.663 810.663 1094.5 782 L 1095 897.5 L 585.5 898 L 585.5 782 Z " fill="rgb(252,253,253)"/></g><path d=" M 953.434 857.168 C 953.434 778.944 1016.942 715.436 1095.167 715.436 L 1095.167 857.168 L 953.434 857.168 Z " fill="rgb(255,255,255)" vector-effect="non-scaling-stroke" stroke-width="2" stroke="rgb(255,255,255)" stroke-linejoin="miter" stroke-linecap="square" stroke-miterlimit="3"/><g><g><circle vector-effect="non-scaling-stroke" cx="823.2491504660534" cy="626.5310076831768" r="140.3149606299213" fill="rgb(255,255,255)" stroke-width="12" stroke="rgb(255,255,255)" stroke-linejoin="miter" stroke-linecap="square" stroke-miterlimit="3"/><path d=" M 817.365 489 L 829.344 489.32 C 827.812 490.24 827.814 492.257 828.049 493.799 L 828.049 493.799 L 829.344 496.999 Q 828.165 501.592 824.488 503.718 Q 816.7 507.86 806.033 509.157 Q 804.957 516.413 801.176 520.995 Q 798.57 524.178 792.758 524.194 Q 790.314 522.451 790.816 517.795 Q 783.583 518.007 779.484 521.315 Q 775.123 525.004 766.209 524.194 Q 764.59 523.555 765.238 520.675 Q 767.924 516.931 768.475 511.077 L 765.562 508.837 L 762 511.077 Q 762.282 519.034 757.791 522.275 Q 751.442 523.039 749.049 527.714 Q 745.768 531.511 745.812 538.592 Q 746.621 544.191 743.545 545.951 Q 735.667 546.698 732.537 542.752 L 731.242 545.951 L 726.709 546.591 C 725.17 544.461 721.663 545.347 719.586 545.951 L 719.586 545.951 L 715.377 548.191 L 712.463 553.63 L 703.398 557.469 L 703.721 556.509 Q 714.876 537.457 731.242 523.555 Q 762.279 494.395 817.365 489 Z  M 856.865 492.839 Q 901.457 503.805 927.771 532.833 Q 948.173 553.625 958.853 584.025 Q 955.129 589.944 956.262 600.662 Q 960.318 606.893 960.795 616.66 L 960.148 619.859 L 959.176 627.218 C 957.886 627.378 956.508 627.072 956.262 625.618 L 956.262 625.618 L 947.197 607.701 C 946.542 603.356 944.679 599.168 941.045 596.503 L 941.045 596.503 L 939.426 595.543 C 939.524 592.831 938.958 589.799 936.512 588.184 L 936.512 588.184 L 933.922 587.544 C 929.771 593.287 923.655 588.183 918.988 586.825 C 915.201 585.724 911.316 585.138 907.373 584.985 L 907.373 584.985 L 905.107 586.585 C 904.82 589.075 905.303 591.868 908.021 592.664 L 908.021 592.664 L 919.029 599.063 L 922.267 594.583 C 925.373 595.044 928.23 596.549 929.713 599.383 L 929.713 599.383 L 930.361 601.942 C 925.975 611.701 920.044 620.781 912.553 628.498 L 912.553 628.498 L 910.611 629.138 L 907.049 626.258 Q 902.084 613.248 892.48 604.822 Q 885.014 602.281 880.176 597.143 L 879.205 598.743 Q 889.453 619.651 905.43 634.897 Q 907.157 636.71 911.258 636.177 Q 915.721 631.948 923.562 631.058 L 923.885 636.497 Q 918.534 651.365 908.344 661.453 Q 898.3 668.164 900.574 687.049 Q 902.445 690.639 901.869 696.647 L 900.898 698.247 Q 892.577 699.943 888.271 705.606 Q 885.252 709.661 885.033 716.484 Q 886.49 722.403 883.414 723.843 Q 874.356 725.13 869.492 730.562 L 866.578 734.081 Q 860.83 738.319 851.685 739.2 Q 849.202 741.867 843.267 741.12 Q 840.029 740.16 841 735.041 Q 837.191 731.446 837.762 723.523 Q 838.734 717.444 834.525 716.484 Q 829.962 714.593 831.287 706.886 Q 831.516 702.633 834.201 700.807 Q 837.034 699.767 836.467 695.367 Q 833.3 685.379 826.754 678.73 Q 823.004 675.397 822.221 669.132 Q 824.991 667.069 824.812 662.093 L 823.193 659.853 C 820.099 660.287 816.34 660.384 813.803 658.253 L 813.803 658.253 L 810.889 653.454 L 807.004 652.814 Q 796.8 656.808 782.398 656.654 Q 774.552 655.128 770.418 649.935 Q 763.576 640.698 762 626.258 Q 764.615 621.804 763.943 614.1 Q 762.684 606.777 766.209 604.182 L 773.332 598.423 L 793.082 582.105 C 794.883 580.826 794.721 578.246 794.377 576.346 L 794.377 576.346 L 787.254 571.867 L 790.168 563.868 L 793.73 561.629 L 794.701 560.029 C 796.989 561.957 800.255 562.171 803.119 561.948 L 803.119 561.948 L 803.443 558.429 Q 800.313 556.083 800.853 550.11 Q 807.126 550.87 809.271 547.551 Q 809.756 545.151 808.299 544.671 Q 802.593 543.831 800.529 546.591 L 798.91 545.631 L 797.939 541.472 C 797.541 542.912 795.937 542.967 794.701 542.752 L 794.701 542.752 L 793.73 540.512 Q 797.777 533.633 803.766 528.674 Q 806.357 528.354 806.68 530.273 Q 806.303 536.086 809.594 538.272 L 811.213 538.592 L 810.566 541.792 L 812.185 544.031 L 814.127 544.671 L 820.279 541.152 L 822.545 538.272 C 827.889 540.226 833.745 540.523 839.381 540.192 L 839.381 540.192 L 841 539.232 C 844.002 534.161 842.896 527.335 841.648 521.955 L 841.648 521.955 L 838.734 518.435 L 835.82 520.675 C 834.162 522.313 834.218 524.953 834.525 527.074 L 834.525 527.074 L 835.172 528.994 C 834.974 530.834 834.166 533.577 832.258 534.433 C 831.154 534.928 829.198 534.712 828.697 533.473 L 828.697 533.473 L 827.726 529.314 L 821.898 529.954 L 818.984 527.714 C 817.649 525.924 817.933 523.355 818.336 521.315 L 818.336 521.315 L 821.25 517.795 C 826.51 516.83 829.457 514.261 833.142 510.91 C 834.489 509.686 836.353 509.003 838.158 508.828 C 842.751 508.381 849.168 508.287 852.656 511.716 L 852.656 511.716 L 853.303 516.836 L 853.303 518.115 L 853.627 519.075 Q 858.646 520.195 859.779 517.475 Q 860.036 508.771 864.959 504.678 Q 861.862 497.308 856.865 492.839 Z " fill-rule="evenodd" fill="rgb(2,160,224)"/><path d=" M 863.988 551.07 Q 876.66 550.386 881.148 557.789 Q 881.633 561.469 878.881 561.948 Q 871.992 561.54 870.139 566.108 L 868.844 570.587 L 871.111 574.107 L 875.967 574.426 C 877.6 576.799 877.168 580.111 876.615 582.745 L 876.615 582.745 L 873.701 588.824 Q 867.445 584.448 856.865 584.345 Q 852.64 587.849 852.98 595.863 Q 843.558 595.255 837.762 591.064 Q 835.167 586.59 826.754 587.864 Q 824.131 584.378 825.135 577.306 Q 818.071 584.083 802.471 582.425 Q 798.1 581.625 798.91 575.706 Q 803.628 575.249 805.385 571.867 L 809.594 565.788 L 811.213 564.828 L 815.422 560.029 C 816.734 558.214 819.173 557.951 821.25 558.109 L 821.25 558.109 L 825.783 563.228 Q 831.125 562.748 833.23 565.468 Q 832.015 571.467 834.848 573.467 L 839.381 574.746 L 841.648 573.787 L 841.971 567.068 C 846.865 566.304 844.599 570.244 845.487 573.032 C 846.134 575.061 849.024 575.453 850.541 574.097 C 852.793 572.084 849.148 568.226 852.332 566.428 L 852.332 566.428 L 854.922 565.788 L 857.512 566.428 C 857.381 561.145 858.398 555.305 862.693 551.71 L 862.693 551.71 L 863.988 551.07 Z " fill="rgb(252,253,253)"/><path d=" M 684.619 608.021 Q 689.508 608.949 692.066 612.181 Q 691.241 622.274 695.951 626.898 Q 700.807 628.818 699.836 636.497 Q 698.693 645.625 704.693 647.695 Q 712.063 653.849 715.053 664.332 Q 722.239 665.55 725.738 670.411 Q 726.952 677.37 723.795 680.01 Q 720.209 683.825 721.205 692.168 L 725.738 705.606 L 721.852 707.525 L 721.205 711.365 L 725.09 727.362 L 717.32 720.323 Q 683.807 686.571 683 620.499 Q 684.457 619.699 683.648 616.66 L 684.619 608.021 Z " fill="rgb(2,160,224)"/></g><g><circle vector-effect="non-scaling-stroke" cx="823.6664733006986" cy="626.9483305178223" r="141.73228346456688" fill="none" stroke-width="12" stroke="rgb(0,0,0)" stroke-linejoin="miter" stroke-linecap="square" stroke-miterlimit="3"/></g><g><path d=" M 964.189 458.825 L 980.35 474.198 Q 1003.123 495.378 1004.896 517.279 Q 1005.902 530.407 995.396 544.283 L 964.256 593.973 Q 924.721 576.571 883.391 535.451 Q 855.398 508.417 835.256 481.113 L 882.888 445.689 Q 885.695 443.317 887.789 441.727 C 897.264 434.533 906.019 430.868 915.477 429.552 Q 938.884 437.673 964.189 458.825 Z " fill="rgb(218,21,22)"/><path d=" M 967.23 460.651 Q 989.083 489.826 990.083 519.718 Q 992.218 519.162 991.23 522.092 Q 987.027 543.716 971.794 565.719 L 967.97 566.333 L 964.483 565.005 L 966.641 561.552 L 965.639 561.104 C 964.655 563.122 963.151 565.763 960.544 565.691 C 959.172 565.652 955.177 562.08 955.916 560.472 C 958.288 555.307 962.294 550.398 965.733 545.956 C 971.808 538.107 981.704 530.939 983.364 520.432 L 983.364 520.432 L 987.525 517.876 C 984.773 499.251 977.734 481.338 968.041 464.967 L 968.041 464.967 L 965.073 464.104 L 965.337 461.199 L 967.23 460.651 Z " fill="rgb(6,7,4)"/><path d=" M 964.219 593.492 Q 961.699 600.336 956.071 607.287 Q 913.329 582.661 869.134 538.837 Q 843.865 514.364 825.742 489.646 Q 830.59 483.385 835.738 481.097 Q 865.964 521.328 912.898 560.985 Q 938.978 582.781 964.219 593.492 Z " fill="rgb(6,7,4)"/></g></g><g><path d=" M 1035.131 756.359 Q 1038.145 757.688 1039.793 760.737 Q 1042.364 764.745 1047.221 765.873 Q 1053.997 766.704 1057.275 771.942 L 1057.124 772.839 L 1053.642 773.691 L 1053.773 774.233 C 1056.01 774.883 1058.148 776.216 1059.687 778.448 L 1059.687 778.448 L 1059.541 778.986 C 1056.634 776.87 1053.131 776.499 1049.852 776.697 L 1049.852 776.697 L 1049.706 777.235 C 1055.181 784.095 1062.965 785.73 1068.665 792.235 L 1068.665 792.235 L 1066.298 792.743 C 1063.92 791.634 1061.328 791.419 1058.816 791.563 L 1058.816 791.563 L 1058.115 792.093 L 1058.246 792.634 Q 1065.275 793.854 1070.541 797.296 Q 1069.125 799.07 1066.215 798.856 L 1061.491 799.152 Q 1059.605 798.654 1058.846 799.655 Q 1068.84 801.559 1074.268 809.214 L 1074.526 810.656 C 1072.941 813.391 1069.493 810.743 1067.64 810.228 C 1066.215 809.833 1064.738 809.816 1063.289 809.965 L 1063.289 809.965 L 1061.749 810.843 L 1062.154 811.748 C 1067.363 813.127 1072.379 816.034 1076.051 821.106 L 1076.051 821.106 L 1076.855 823.275 L 1072.549 823.396 Q 1066.492 819.185 1057.902 818.164 Q 1054.076 818.742 1051.945 817.185 Q 1050.228 815.813 1047.098 816.22 L 1045.271 817.814 L 1044.677 820.683 Q 1045.455 827.834 1049.116 831.352 Q 1052.189 833.136 1054.187 836.276 L 1053.758 837.169 Q 1049.815 837.364 1047.674 835.289 Q 1045.438 833.157 1041.595 833.049 L 1041.444 833.946 L 1042.521 836.478 L 1041.824 836.648 C 1041.022 836.343 1040.238 835.96 1039.486 835.485 C 1037.264 834.081 1035.85 831.158 1033.519 830.121 C 1032.792 829.798 1032.022 829.614 1031.257 829.524 C 1023.847 828.648 1018.162 836.204 1010.996 836.952 L 1010.996 836.952 L 1010.864 836.411 C 1013.875 831.661 1018.428 831.35 1022.112 827.965 C 1023.981 826.247 1025.375 824.602 1025.228 821.5 L 1025.228 821.5 L 1023.469 818.059 C 1022.437 816.897 1020.853 817.024 1019.592 817.288 L 1019.592 817.288 L 1007.459 821.26 C 1003.258 823.261 998.652 823.484 994.244 823.06 L 994.244 823.06 L 994.112 822.519 C 996.212 818.964 999.222 819.461 1002.203 818.585 C 1006.573 817.301 1010.8 815.303 1014.526 812.005 L 1014.526 812.005 L 1013.279 811.808 C 1008.702 814.997 1003.336 815.746 998.233 815.561 L 998.233 815.561 L 995.612 814.267 L 997.171 811.951 Q 1001.625 808.549 1007.102 806.51 Q 1010.163 805.462 1011.875 802.619 L 1012.172 801.184 L 1011.203 800.991 C 1008.882 802.774 1006.015 802.958 1003.405 802.684 L 1003.405 802.684 L 1002.172 801.409 L 1001.914 799.967 C 1005.583 795.522 1010.88 795.954 1014.524 791.506 C 1015.539 790.268 1015.606 788.557 1015.42 786.842 L 1015.42 786.842 L 1012.785 786.627 C 1011.727 788.243 1009.682 787.736 1008.333 787.286 L 1008.333 787.286 L 1010.598 784.08 C 1015.428 781.627 1020.039 778.413 1024.197 774.373 L 1024.197 774.373 L 1023.233 773.821 C 1022.576 774.671 1021.607 774.886 1020.719 774.866 L 1020.719 774.866 L 1020.597 773.605 L 1022.438 770.933 L 1025.936 769.002 L 1025.809 768.101 L 1025.122 767.553 C 1024.858 765.676 1026.444 765.44 1027.475 764.716 C 1030.085 762.886 1032.453 760.493 1034.42 757.608 L 1034.42 757.608 L 1035.131 756.359 Z " fill="rgb(16,119,59)"/><line x1="1038.434" y1="758.561" x2="1039.52" y2="760.374"/><path d=" M 1045.83 786.713 L 1048.187 786.924 L 1045.825 787.072 L 1045.83 786.713 Z " fill="rgb(16,119,59)"/><path d=" M 1018.743 797.856 L 1021.378 798.071 L 1018.738 798.216 L 1018.743 797.856 Z " fill="rgb(17,117,62)"/><path d=" M 1014.257 801.032 L 1016.332 801.6 L 1014.525 801.755 L 1014.257 801.032 Z " fill="rgb(16,119,59)"/><path d=" M 1051.537 837.139 L 1053.894 837.351 L 1051.532 837.499 L 1051.537 837.139 Z " fill="rgb(17,117,62)"/></g></g></g></svg>